{"title":"The.Green.Slime.1968.DVDRip.x264-ShitBusters","uid":7524112,"size":1172783532,"categoryP":"video","categoryS":"movies","magnet":"?xt=urn:btih:a615da207fd96bc3c01c69b18e2788c850f088ab&amp;dn=The.Green.Slime.1968.DVDRip.x264-ShitBusters&amp;tr=udp%3A%2F%2Ftracker.openbittorrent.com%3A80&amp;tr=udp%3A%2F%2Fopen.demonii.com%3A1337&amp;tr=udp%3A%2F%2Ftracker.coppersurfer.tk%3A6969&amp;tr=udp%3A%2F%2Fexodus.desync.com%3A6969","seeders":0,"leechers":0,"uploader":"carlosm42","files":4,"time":1344725023,"description":"The.Green.Slime.1968.DVDRip.x264-ShitBusters\n\nFile Size: 1,09GB\n\nResolution: 716 x 356\n\nVideo: MPEG4 Video (H264) 716x356 (867:356) 23.976fps [Video]\n\nAudio: Dolby AC3 48000Hz stereo [Audio]\n\n\nGeneral\nComplete name                  : The.Green.Slime.1968.DVDRip.x264-ShitBusters.mkv\nFormat                         : Matroska\nFormat version                 : Version 2\nFile size                      : 1.09 GiB\nDuration                       : 1h 30mn\nOverall bit rate               : 1 734 Kbps\nEncoded date                   : UTC 2011-02-28 08:55:09\nWriting application            : mkvmerge v3.4.0 ('Rapunzel') built on May 15 2010 09:38:20\nWriting library                : libebml v0.8.0 + libmatroska v0.9.0\n\nVideo\nID                             : 1\nFormat                         : AVC\nFormat/Info                    : Advanced Video Codec\nFormat profile                 : &lt;a class=&quot;__cf_email__&quot; href=&quot;/cdn-cgi/l/email-protection&quot; data-cfemail=&quot;c880a1afa08884fce6f9&quot;&gt;[email&amp;#160;protected]&lt;/a&gt;&lt;script cf-hash='f9e31' type=&quot;text/javascript&quot;&gt;\n/* &lt;![CDATA[ */!function(){try{var t=&quot;currentScript&quot;in document?document.currentScript:function(){for(var t=document.getElementsByTagName(&quot;script&quot;),e=t.length;e--;)if(t[e].getAttribute(&quot;cf-hash&quot;))return t[e]}();if(t&amp;&amp;t.previousSibling){var e,r,n,i,c=t.previousSibling,a=c.getAttribute(&quot;data-cfemail&quot;);if(a){for(e=&quot;&quot;,r=parseInt(a.substr(0,2),16),n=2;a.length-n;n+=2)i=parseInt(a.substr(n,2),16)^r,e+=String.fromCharCode(i);e=document.createTextNode(e),c.parentNode.replaceChild(e,c)}}}catch(u){}}();/* ]]&gt; */&lt;/script&gt;\nFormat settings, CABAC         : Yes\nFormat settings, ReFrames      : 16 frames\nCodec ID                       : V_MPEG4/ISO/AVC\nDuration                       : 1h 30mn\nBit rate                       : 1 540 Kbps\nWidth                          : 716 pixels\nHeight                         : 356 pixels\nDisplay aspect ratio           : 2.40:1\nOriginal display aspect ratio  : 2.40:1\nFrame rate                     : 23.976 fps\nColor space                    : YUV\nChroma subsampling             : 4:2:0\nBit depth                      : 8 bits\nScan type                      : Progressive\nBits/(Pixel*Frame)             : 0.252\nStream size                    : 972 MiB (87%)\nTitle                          : The Green Slime (1968)\nWriting library                : x264 core 114 r1913 5fd3dce\nDefault                        : No\nForced                         : No\n\nAudio\nID                             : 2\nFormat                         : AC-3\nFormat/Info                    : Audio Coding 3\nMode extension                 : CM (complete main)\nFormat settings, Endianness    : Big\nCodec ID                       : A_AC3\nDuration                       : 1h 30mn\nBit rate mode                  : Constant\nBit rate                       : 192 Kbps\nChannel(s)                     : 2 channels\nChannel positions              : Front: L R\nSampling rate                  : 48.0 KHz\nBit depth                      : 16 bits\nCompression mode               : Lossy\nStream size                    : 124 MiB (11%)\nTitle                          : English Audio (AC3 @ 192 kbps, 2 channels)\nLanguage                       : English\nDefault                        : Yes\nForced                         : No\n","torrent":{"xt":"urn:btih:a615da207fd96bc3c01c69b18e2788c850f088ab","amp;dn":"The.Green.Slime.1968.DVDRip.x264-ShitBusters","amp;tr":["udp%3A%2F%2Ftracker.openbittorrent.com%3A80","udp%3A%2F%2Fopen.demonii.com%3A1337","udp%3A%2F%2Ftracker.coppersurfer.tk%3A6969","udp%3A%2F%2Fexodus.desync.com%3A6969"],"infoHash":"a615da207fd96bc3c01c69b18e2788c850f088ab","infoHashBuffer":{"type":"Buffer","data":[166,21,218,32,127,217,107,195,192,28,105,177,142,39,136,200,80,240,136,171]},"announce":[],"urlList":[]}}